<?xml version="1.0" encoding="utf-8"?>
<!-- Generator: Adobe Illustrator 17.1.0, SVG Export Plug-In . SVG Version: 6.00 Build 0)  -->
<!DOCTYPE svg PUBLIC "-//W3C//DTD SVG 1.1//EN" "http://www.w3.org/Graphics/SVG/1.1/DTD/svg11.dtd">
<svg version="1.1" xmlns="http://www.w3.org/2000/svg" xmlns:xlink="http://www.w3.org/1999/xlink" x="0px" y="0px"
	 viewBox="0 0 80 80" enable-background="new 0 0 80 80" xml:space="preserve">
<g id="Layer_2">
	<linearGradient id="SVGID_1_" gradientUnits="userSpaceOnUse" x1="11.2302" y1="40" x2="68.7698" y2="40">
		<stop  offset="0" style="stop-color:#FFFFFF"/>
		<stop  offset="1" style="stop-color:#EEEFDB"/>
	</linearGradient>
	<path fill="url(#SVGID_1_)" d="M21.8,47v-5.3c0-0.8,0-2.6,0-3.2c-0.2,0.5-0.6,1.6-1,2.4l-2.9,6.4L15,41c-0.4-0.8-0.8-1.9-1-2.4
		c0,0.6,0,2.4,0,3.2V47h-2.8V32.6H14l3,6.5c0.4,0.8,0.8,1.9,1,2.4c0.2-0.5,0.6-1.6,1-2.4l2.9-6.5h2.8V47H21.8z M28.4,47V32.6h10v2.8
		h-7.1v2.5h4.1v2.8h-4.1v3.5h7.4V47H28.4z M50.9,47l-5.3-7.9c-0.4-0.5-0.8-1.3-1-1.6c0,0.5,0,2.3,0,3.1V47h-2.8V32.6h2.8l5.1,7.6
		c0.4,0.5,0.8,1.3,1,1.6c0-0.5,0-2.3,0-3.1v-6.1h2.8V47H50.9z M62.9,47.3c-3.5,0-5.8-2.3-5.8-6.5v-8.1H60v8c0,2.3,1.1,3.8,2.9,3.8
		c1.8,0,3-1.4,3-3.7v-8.1h2.9v8C68.8,44.9,66.6,47.3,62.9,47.3z"/>
</g>
<g id="Layer_1">
	<linearGradient id="SVGID_2_" gradientUnits="userSpaceOnUse" x1="3.2364" y1="40" x2="76.7636" y2="40">
		<stop  offset="0" style="stop-color:#FFFFFF"/>
		<stop  offset="1" style="stop-color:#EEEFDB"/>
	</linearGradient>
	<circle fill="none" stroke="url(#SVGID_2_)" stroke-width="4" stroke-miterlimit="10" cx="40" cy="40" r="34.8"/>
</g>
</svg>
