<?xml version="1.0" encoding="utf-8"?>
<!-- Generator: Adobe Illustrator 17.1.0, SVG Export Plug-In . SVG Version: 6.00 Build 0)  -->
<!DOCTYPE svg PUBLIC "-//W3C//DTD SVG 1.1//EN" "http://www.w3.org/Graphics/SVG/1.1/DTD/svg11.dtd">
<svg version="1.1" xmlns="http://www.w3.org/2000/svg" xmlns:xlink="http://www.w3.org/1999/xlink" x="0px" y="0px"
	 viewBox="0 0 40 40" enable-background="new 0 0 40 40" xml:space="preserve">
<g id="Layer_2">
</g>
<g id="Layer_1">
	<linearGradient id="SVGID_1_" gradientUnits="userSpaceOnUse" x1="2.2179" y1="20" x2="37.7821" y2="20">
		<stop  offset="0" style="stop-color:#FFFFFF"/>
		<stop  offset="1" style="stop-color:#EEEFDB"/>
	</linearGradient>
	<circle fill="none" stroke="url(#SVGID_1_)" stroke-width="4" stroke-miterlimit="10" cx="20" cy="20" r="15.8"/>
	<g>
		<linearGradient id="SVGID_2_" gradientUnits="userSpaceOnUse" x1="13" y1="20" x2="27" y2="20">
			<stop  offset="0" style="stop-color:#FFFFFF"/>
			<stop  offset="1" style="stop-color:#EEEFDB"/>
		</linearGradient>
		<path fill="url(#SVGID_2_)" d="M24.3,27L22,23.9c-0.9-1.2-1.5-2-2.1-2.8h-0.1c-0.5,0.8-1,1.6-2,2.8L15.7,27H13l5.5-7.1L13.2,13
			h2.7l2.4,3.3c0.7,0.9,1.2,1.6,1.7,2.4h0.1c0.5-0.8,1-1.5,1.6-2.4l2.5-3.3h2.7l-5.5,6.8L27,27H24.3z"/>
	</g>
</g>
</svg>
